<svg width="277" height="277" viewBox="0 0 277 277" fill="none" xmlns="http://www.w3.org/2000/svg">
<rect x="0.647461" y="50.88" width="231" height="231" rx="5" transform="rotate(-12.5596 0.647461 50.88)" fill="#19191B" fill-opacity="0.5"/>
<path d="M141.251 179.87L162.554 175.124C180.306 171.169 185.825 162.486 181.87 144.734L177.124 123.431C173.169 105.679 164.486 100.16 146.734 104.115L125.431 108.861C107.679 112.816 102.16 121.499 106.115 139.251L110.861 160.554C114.816 178.306 123.499 183.825 141.251 179.87Z" stroke="#222325" stroke-width="7.275" stroke-linecap="round" stroke-linejoin="round"/>
<rect x="80.6133" y="101.707" width="77.6" height="77.6" rx="38.8" transform="rotate(-12.5596 80.6133 101.707)" fill="#19191B"/>
<path d="M124.18 169.019L145.483 164.273C163.235 160.318 168.754 151.635 164.799 133.883L160.053 112.58C156.098 94.828 147.415 89.3091 129.663 93.264L108.36 98.01C90.6077 101.965 85.0888 110.648 89.0438 128.4L93.7898 149.703C97.7447 167.455 106.428 172.974 124.18 169.019Z" stroke="#222325" stroke-width="7.275" stroke-linecap="round" stroke-linejoin="round"/>
<path d="M114.689 126.414C118.61 125.54 121.081 121.652 120.208 117.731C119.334 113.809 115.446 111.338 111.525 112.212C107.603 113.086 105.132 116.973 106.006 120.895C106.88 124.816 110.767 127.287 114.689 126.414Z" stroke="#222325" stroke-width="7.275" stroke-linecap="round" stroke-linejoin="round"/>
<path d="M99.2953 163.197L114.181 147.545C116.566 145.039 120.661 144.35 123.665 145.954L125.066 146.723C128.365 148.484 132.839 147.488 135.078 144.492L147.024 128.526C149.264 125.531 153.737 124.534 157.036 126.296L163.931 129.977" stroke="#222325" stroke-width="7.275" stroke-linecap="round" stroke-linejoin="round"/>
<rect x="23" y="23" width="231" height="231" rx="5" fill="#19191B"/>
<path d="M132.191 179.479H154.016C172.204 179.479 179.479 172.204 179.479 154.016V132.191C179.479 114.004 172.204 106.729 154.016 106.729H132.191C114.004 106.729 106.729 114.004 106.729 132.191V154.016C106.729 172.204 114.004 179.479 132.191 179.479Z" stroke="#222325" stroke-width="7.275" stroke-linecap="round" stroke-linejoin="round"/>
<rect x="90" y="90" width="77.6" height="77.6" rx="38.8" fill="#19191B"/>
<path d="M117.887 165.175H139.712C157.9 165.175 165.175 157.9 165.175 139.712V117.887C165.175 99.7 157.9 92.425 139.712 92.425H117.887C99.6998 92.425 92.4248 99.7 92.4248 117.887V139.712C92.4248 157.9 99.6998 165.175 117.887 165.175Z" stroke="#222325" stroke-width="7.275" stroke-linecap="round" stroke-linejoin="round"/>
<path d="M117.887 121.525C121.905 121.525 125.162 118.268 125.162 114.25C125.162 110.232 121.905 106.975 117.887 106.975C113.869 106.975 110.612 110.232 110.612 114.25C110.612 118.268 113.869 121.525 117.887 121.525Z" stroke="#222325" stroke-width="7.275" stroke-linecap="round" stroke-linejoin="round"/>
<path d="M94.8633 154.081L112.796 142.04C115.67 140.113 119.817 140.331 122.399 142.55L123.6 143.605C126.437 146.042 131.02 146.042 133.857 143.605L148.989 130.619C151.827 128.182 156.41 128.182 159.247 130.619L165.176 135.711" stroke="#222325" stroke-width="7.275" stroke-linecap="round" stroke-linejoin="round"/>
</svg>
