<svg width="293" height="292" viewBox="0 0 293 292" fill="none" xmlns="http://www.w3.org/2000/svg">
<path d="M268.41 204.643L230.328 115.583C223.393 99.2801 213.051 90.0334 201.25 89.4251C189.57 88.8167 178.255 96.9684 169.616 112.542L146.5 154.03C141.633 162.79 134.698 168.022 127.155 168.63C119.49 169.36 111.825 165.345 105.62 157.437L102.943 154.03C94.3048 143.202 83.5982 137.97 72.6482 139.065C61.6982 140.16 52.3298 147.703 46.1248 159.992L25.0765 201.967C17.5332 217.175 18.2632 234.817 27.1448 249.173C36.0265 263.53 51.4782 272.168 68.3898 272.168H223.636C239.94 272.168 255.148 264.017 264.151 250.39C273.398 236.763 274.858 219.608 268.41 204.643Z" fill="#292D32"/>
<path d="M85.3016 101.957C108.013 101.957 126.425 83.5451 126.425 60.8333C126.425 38.1215 108.013 19.7099 85.3016 19.7099C62.5898 19.7099 44.1783 38.1215 44.1783 60.8333C44.1783 83.5451 62.5898 101.957 85.3016 101.957Z" fill="#292D32"/>
</svg>
